<svg t="1745418278431" class="icon" viewBox="0 0 1024 1024" version="1.1" xmlns="http://www.w3.org/2000/svg" p-id="4024" width="16" height="16"><path d="M860.16 921.6C443.733333 921.6 102.4 580.266667 102.4 163.84 102.4 129.706667 129.706667 102.4 163.84 102.4h153.6c34.133333 0 61.44 27.306667 61.44 61.44 0 51.2 6.826667 102.4 23.893333 150.186667 6.826667 20.48 0 44.373333-13.653333 61.44l-71.68 95.573333c58.026667 109.226667 129.706667 180.906667 238.933333 238.933333l95.573334-71.68c13.653333-13.653333 37.546667-20.48 61.44-13.653333 47.786667 17.066667 98.986667 23.893333 150.186666 23.893333 34.133333 0 61.44 27.306667 61.44 61.44v153.6c-3.413333 30.72-30.72 58.026667-64.853333 58.026667zM163.84 136.533333c-17.066667 0-27.306667 10.24-27.306667 27.306667C136.533333 563.2 460.8 887.466667 860.16 887.466667c13.653333 0 27.306667-10.24 27.306667-27.306667v-153.6c0-13.653333-10.24-27.306667-27.306667-27.306667-54.613333 0-109.226667-10.24-160.426667-27.306666-10.24-3.413333-20.48 0-27.306666 6.826666l-105.813334 81.92c-6.826667 3.413333-13.653333 3.413333-17.066666 0-126.293333-64.853333-204.8-143.36-269.653334-269.653333-3.413333-6.826667-3.413333-13.653333 0-17.066667l78.506667-105.813333c10.24-10.24 10.24-20.48 6.826667-30.72-13.653333-44.373333-23.893333-98.986667-23.893334-153.6 0-17.066667-10.24-27.306667-23.893333-27.306667H163.84z" fill="" p-id="4025"></path></svg>